<svg width="149" height="100" viewBox="0 0 149 100" fill="none" xmlns="http://www.w3.org/2000/svg">
<path d="M73.1161 48.9186C69.8871 48.9186 67.2497 47.9211 65.221 45.9431C63.1922 43.9651 62.1779 41.3277 62.1779 38.0141V37.4393C62.1779 35.2246 62.6005 33.2466 63.4627 31.5053C64.3249 29.7639 65.5253 28.4114 67.0976 27.4647C68.6698 26.5179 70.4619 26.0446 72.4568 26.0446C75.4661 26.0446 77.8499 26.9913 79.5743 28.9017C81.2987 30.7952 82.1779 33.5002 82.1779 36.9829V39.3835H68.1457C68.3317 40.8205 68.9065 41.9702 69.8702 42.8493C70.8338 43.7115 72.0341 44.1511 73.505 44.1511C75.7704 44.1511 77.5456 43.3227 78.8135 41.6828L81.7045 44.9288C80.8254 46.1798 79.625 47.1604 78.1204 47.8535C76.6326 48.5636 74.9589 48.9186 73.1161 48.9186ZM72.4568 30.8121C71.2903 30.8121 70.3435 31.2009 69.6166 31.9955C68.8896 32.7901 68.4331 33.9228 68.2134 35.3937H76.3959V34.9203C76.3621 33.6185 76.024 32.6041 75.3309 31.8772C74.6546 31.1671 73.691 30.8121 72.4568 30.8121Z" fill="white"/>
<path opacity="0.5" d="M52.0157 19.3513L39.286 66.8829C39.2212 67.0986 38.9623 67.1634 38.8113 67.0123L30.2888 58.4899L36.6753 34.6701C36.74 34.4544 36.5458 34.2602 36.3301 34.3249L12.5103 40.7114L4.03104 32.2321C3.88001 32.081 3.94474 31.8221 4.1605 31.7574L51.6705 19.0061C51.8863 18.9629 52.0804 19.1571 52.0157 19.3513Z" fill="#00B37E"/>
<path opacity="0.5" d="M30.2885 58.49L27.009 70.7882C26.9442 71.004 26.6853 71.0687 26.5343 70.9177L0.0823113 44.4873C-0.0687196 44.3362 -0.00399244 44.0773 0.211766 44.0126L12.51 40.7115L30.2885 58.49Z" fill="#00B37E"/>
<path d="M36.6752 34.6699L30.2887 58.4897L12.5103 40.7112L36.33 34.3247C36.5457 34.26 36.7399 34.4542 36.6752 34.6699Z" fill="#00B37E"/>
<path d="M67.622 64.6314C67.622 64.4246 67.576 64.2334 67.4839 64.0576C67.3969 63.8767 67.2153 63.7139 66.939 63.5691C66.6678 63.4192 66.2585 63.29 65.711 63.1814C65.2505 63.0832 64.8335 62.9669 64.46 62.8325C64.0916 62.6981 63.777 62.5353 63.516 62.344C63.2602 62.1527 63.0632 61.9279 62.9251 61.6694C62.7869 61.411 62.7179 61.1086 62.7179 60.7622C62.7179 60.4314 62.7895 60.1187 62.9328 59.824C63.0811 59.5294 63.2884 59.2683 63.5544 59.0409C63.8256 58.8134 64.1505 58.6351 64.5291 58.5059C64.9077 58.3766 65.3298 58.312 65.7954 58.312C66.4606 58.312 67.0285 58.4309 67.4992 58.6687C67.97 58.9065 68.3307 59.2244 68.5814 59.6224C68.8321 60.0153 68.9574 60.4521 68.9574 60.9328H67.5376C67.5376 60.7002 67.4685 60.4753 67.3304 60.2582C67.1974 60.0359 67.0004 59.8524 66.7394 59.7077C66.4836 59.563 66.1689 59.4906 65.7954 59.4906C65.4015 59.4906 65.0817 59.5526 64.8361 59.6767C64.5956 59.7956 64.4191 59.9481 64.3065 60.1342C64.1991 60.3203 64.1454 60.5167 64.1454 60.7235C64.1454 60.8785 64.171 61.0181 64.2221 61.1422C64.2784 61.2611 64.3756 61.3722 64.5138 61.4756C64.6519 61.5738 64.8463 61.6668 65.097 61.7547C65.3477 61.8426 65.6675 61.9305 66.0564 62.0183C66.7369 62.1734 67.2971 62.3595 67.7372 62.5766C68.1772 62.7937 68.5046 63.0599 68.7195 63.3753C68.9344 63.6906 69.0419 64.0731 69.0419 64.5228C69.0419 64.8898 68.9651 65.2258 68.8116 65.5308C68.6632 65.8358 68.4458 66.0994 68.1593 66.3217C67.8779 66.5388 67.5402 66.7094 67.1462 66.8335C66.7573 66.9524 66.3199 67.0118 65.8338 67.0118C65.1022 67.0118 64.4831 66.88 63.9765 66.6164C63.47 66.3527 63.0863 66.0116 62.8253 65.5929C62.5644 65.1742 62.4339 64.7322 62.4339 64.267H63.8614C63.8819 64.6598 63.9944 64.9726 64.1991 65.2052C64.4038 65.4326 64.6545 65.5954 64.9512 65.6937C65.248 65.7867 65.5422 65.8332 65.8338 65.8332C66.2227 65.8332 66.5476 65.7815 66.8085 65.6782C67.0746 65.5748 67.2767 65.4326 67.4148 65.2517C67.553 65.0708 67.622 64.864 67.622 64.6314Z" fill="white"/>
<path d="M72.3267 54.9468V66.8567H70.9068V54.9468H72.3267ZM71.989 62.344L71.398 62.3207C71.4031 61.747 71.4876 61.2171 71.6513 60.7312C71.815 60.2401 72.0453 59.8137 72.342 59.4518C72.6388 59.09 72.9918 58.8108 73.4011 58.6144C73.8156 58.4128 74.2735 58.312 74.7749 58.312C75.1842 58.312 75.5526 58.3689 75.8801 58.4826C76.2075 58.5911 76.4864 58.7669 76.7166 59.0099C76.952 59.2528 77.1311 59.5681 77.2539 59.9558C77.3767 60.3383 77.4381 60.8062 77.4381 61.3593V66.8567H76.0105V61.3438C76.0105 60.9044 75.9466 60.5529 75.8187 60.2892C75.6908 60.0204 75.504 59.8266 75.2584 59.7077C75.0128 59.5836 74.711 59.5216 74.3528 59.5216C73.9998 59.5216 73.6774 59.5966 73.3858 59.7465C73.0993 59.8964 72.8511 60.1031 72.6413 60.3668C72.4367 60.6304 72.2755 60.9328 72.1578 61.274C72.0453 61.61 71.989 61.9667 71.989 62.344Z" fill="white"/>
<path d="M79.1879 62.755V62.5766C79.1879 61.9718 79.2749 61.411 79.4488 60.894C79.6228 60.3719 79.8735 59.9196 80.201 59.5371C80.5284 59.1494 80.925 58.8496 81.3906 58.6377C81.8562 58.4206 82.378 58.312 82.9562 58.312C83.5395 58.312 84.0639 58.4206 84.5295 58.6377C85.0002 58.8496 85.3993 59.1494 85.7268 59.5371C86.0594 59.9196 86.3126 60.3719 86.4866 60.894C86.6606 61.411 86.7475 61.9718 86.7475 62.5766V62.755C86.7475 63.3598 86.6606 63.9206 86.4866 64.4375C86.3126 64.9545 86.0594 65.4068 85.7268 65.7945C85.3993 66.177 85.0028 66.4768 84.5372 66.6939C84.0767 66.9058 83.5548 67.0118 82.9716 67.0118C82.3883 67.0118 81.8638 66.9058 81.3982 66.6939C80.9326 66.4768 80.5335 66.177 80.201 65.7945C79.8735 65.4068 79.6228 64.9545 79.4488 64.4375C79.2749 63.9206 79.1879 63.3598 79.1879 62.755ZM80.6077 62.5766V62.755C80.6077 63.1737 80.6563 63.5691 80.7535 63.9413C80.8508 64.3083 80.9966 64.634 81.191 64.9183C81.3906 65.2026 81.6387 65.4274 81.9355 65.5929C82.2322 65.7531 82.5776 65.8332 82.9716 65.8332C83.3604 65.8332 83.7007 65.7531 83.9923 65.5929C84.2891 65.4274 84.5346 65.2026 84.7291 64.9183C84.9235 64.634 85.0693 64.3083 85.1665 63.9413C85.2689 63.5691 85.32 63.1737 85.32 62.755V62.5766C85.32 62.1631 85.2689 61.7728 85.1665 61.4058C85.0693 61.0336 84.9209 60.7054 84.7214 60.4211C84.527 60.1316 84.2814 59.9041 83.9846 59.7387C83.693 59.5733 83.3502 59.4906 82.9562 59.4906C82.5674 59.4906 82.2245 59.5733 81.9278 59.7387C81.6361 59.9041 81.3906 60.1316 81.191 60.4211C80.9966 60.7054 80.8508 61.0336 80.7535 61.4058C80.6563 61.7728 80.6077 62.1631 80.6077 62.5766Z" fill="white"/>
<path d="M89.9479 60.0799V70.0823H88.5204V58.4671H89.8251L89.9479 60.0799ZM95.5428 62.5921V62.755C95.5428 63.3649 95.4712 63.931 95.3279 64.453C95.1847 64.97 94.9749 65.4197 94.6986 65.8022C94.4274 66.1847 94.0923 66.482 93.6932 66.6939C93.2941 66.9058 92.8362 67.0118 92.3194 67.0118C91.7924 67.0118 91.3268 66.9239 90.9226 66.7482C90.5184 66.5724 90.1756 66.3166 89.8942 65.9806C89.6128 65.6446 89.3877 65.2414 89.2188 64.771C89.0551 64.3006 88.9425 63.7707 88.8811 63.1814V62.313C88.9425 61.6927 89.0576 61.137 89.2265 60.6459C89.3953 60.1548 89.6179 59.7361 89.8942 59.3898C90.1756 59.0383 90.5158 58.7721 90.9149 58.5911C91.314 58.4051 91.7745 58.312 92.2964 58.312C92.8183 58.312 93.2813 58.4154 93.6855 58.6222C94.0897 58.8238 94.43 59.1132 94.7063 59.4906C94.9826 59.8679 95.1898 60.3203 95.3279 60.8475C95.4712 61.3696 95.5428 61.9511 95.5428 62.5921ZM94.1153 62.755V62.5921C94.1153 62.1734 94.0718 61.7806 93.9848 61.4135C93.8979 61.0414 93.7623 60.7157 93.5781 60.4366C93.399 60.1523 93.1687 59.93 92.8873 59.7697C92.6059 59.6043 92.2708 59.5216 91.8819 59.5216C91.5238 59.5216 91.2117 59.5836 90.9456 59.7077C90.6847 59.8318 90.4621 59.9998 90.2779 60.2117C90.0937 60.4185 89.9428 60.6563 89.8251 60.9251C89.7125 61.1887 89.6281 61.4627 89.5718 61.747V63.7552C89.6742 64.117 89.8174 64.4582 90.0016 64.7787C90.1858 65.094 90.4314 65.3499 90.7384 65.5463C91.0454 65.7376 91.4317 65.8332 91.8973 65.8332C92.281 65.8332 92.611 65.7531 92.8873 65.5929C93.1687 65.4274 93.399 65.2026 93.5781 64.9183C93.7623 64.634 93.8979 64.3083 93.9848 63.9413C94.0718 63.5691 94.1153 63.1737 94.1153 62.755Z" fill="white"/>
</svg>
